<mxfile host="65bd71144e">
    <diagram id="Tg3yGArmQDJc4Jwj3Zgb" name="Page-1">
        <mxGraphModel dx="605" dy="429" grid="1" gridSize="10" guides="1" tooltips="1" connect="1" arrows="1" fold="1" page="1" pageScale="1" pageWidth="850" pageHeight="1100" background="#424242" math="0" shadow="0">
            <root>
                <mxCell id="0"/>
                <mxCell id="1" parent="0"/>
                <mxCell id="2" value="" style="rounded=0;whiteSpace=wrap;html=1;" parent="1" vertex="1">
                    <mxGeometry x="293" y="420" width="260" height="100" as="geometry"/>
                </mxCell>
                <mxCell id="3" value="Data" style="text;html=1;align=center;verticalAlign=middle;resizable=0;points=[];autosize=1;strokeColor=none;fillColor=none;fontStyle=1;fontSize=12;" parent="1" vertex="1">
                    <mxGeometry x="503" y="390" width="50" height="30" as="geometry"/>
                </mxCell>
                <mxCell id="4" value="" style="rounded=0;whiteSpace=wrap;html=1;" parent="1" vertex="1">
                    <mxGeometry x="293" y="270" width="260" height="100" as="geometry"/>
                </mxCell>
                <mxCell id="5" value="Infra" style="text;html=1;align=center;verticalAlign=middle;resizable=0;points=[];autosize=1;strokeColor=none;fillColor=none;fontStyle=1;fontSize=12;" parent="1" vertex="1">
                    <mxGeometry x="503" y="240" width="50" height="30" as="geometry"/>
                </mxCell>
                <mxCell id="6" value="" style="rounded=0;whiteSpace=wrap;html=1;" parent="1" vertex="1">
                    <mxGeometry x="220" y="700" width="353" height="170" as="geometry"/>
                </mxCell>
                <mxCell id="7" value="Presentation" style="text;html=1;align=center;verticalAlign=middle;resizable=0;points=[];autosize=1;strokeColor=none;fillColor=none;fontStyle=1;fontSize=12;" parent="1" vertex="1">
                    <mxGeometry x="212.75" y="680" width="100" height="30" as="geometry"/>
                </mxCell>
                <mxCell id="8" value="" style="rounded=0;whiteSpace=wrap;html=1;" parent="1" vertex="1">
                    <mxGeometry x="620" y="690" width="207" height="190" as="geometry"/>
                </mxCell>
                <mxCell id="9" value="Domain" style="text;html=1;align=center;verticalAlign=middle;resizable=0;points=[];autosize=1;strokeColor=none;fillColor=none;fontStyle=1;fontSize=12;" parent="1" vertex="1">
                    <mxGeometry x="760" y="670" width="70" height="30" as="geometry"/>
                </mxCell>
                <mxCell id="10" value="" style="rounded=0;whiteSpace=wrap;html=1;" parent="1" vertex="1">
                    <mxGeometry x="40" y="580" width="242" height="100" as="geometry"/>
                </mxCell>
                <mxCell id="11" value="Validation" style="text;html=1;align=center;verticalAlign=middle;resizable=0;points=[];autosize=1;strokeColor=none;fillColor=none;fontStyle=1;fontSize=12;" parent="1" vertex="1">
                    <mxGeometry x="40" y="550" width="80" height="30" as="geometry"/>
                </mxCell>
                <mxCell id="12" value="&lt;font style=&quot;font-size: 11px;&quot;&gt;AddAccount&lt;br&gt;UseCase&lt;/font&gt;" style="square;whiteSpace=wrap;html=1;fontSize=12;labelBorderColor=none;fillColor=none;dashed=1;strokeColor=default;" parent="1" vertex="1">
                    <mxGeometry x="640" y="741.87" width="86.5" height="35" as="geometry"/>
                </mxCell>
                <mxCell id="16" value="&lt;font style=&quot;font-size: 8px;&quot;&gt;Controller&lt;/font&gt;" style="square;whiteSpace=wrap;html=1;fontSize=12;labelBorderColor=none;fillColor=none;dashed=1;strokeColor=default;" parent="1" vertex="1">
                    <mxGeometry x="493" y="832.5" width="70" height="25" as="geometry"/>
                </mxCell>
                <mxCell id="17" value="&lt;font style=&quot;font-size: 8px;&quot;&gt;EmailValidator&lt;/font&gt;" style="square;whiteSpace=wrap;html=1;fontSize=12;labelBorderColor=none;fillColor=none;dashed=1;strokeColor=default;" parent="1" vertex="1">
                    <mxGeometry x="370.88" y="712.5" width="70" height="27.5" as="geometry"/>
                </mxCell>
                <mxCell id="18" value="&lt;font style=&quot;font-size: 6px;&quot;&gt;Encrypter&lt;/font&gt;" style="square;whiteSpace=wrap;html=1;fontSize=12;labelBorderColor=none;fillColor=none;dashed=1;strokeColor=default;" parent="1" vertex="1">
                    <mxGeometry x="318" y="440" width="66.5" height="20" as="geometry"/>
                </mxCell>
                <mxCell id="19" value="&lt;font style=&quot;font-size: 6px;&quot;&gt;AddUserRepo&lt;/font&gt;" style="square;whiteSpace=wrap;html=1;fontSize=12;labelBorderColor=none;fillColor=none;dashed=1;strokeColor=default;" parent="1" vertex="1">
                    <mxGeometry x="456.25" y="440" width="66.5" height="20" as="geometry"/>
                </mxCell>
                <mxCell id="40" style="edgeStyle=none;html=1;exitX=0.5;exitY=1;exitDx=0;exitDy=0;entryX=0.5;entryY=0;entryDx=0;entryDy=0;fontSize=6;" parent="1" source="24" target="12" edge="1">
                    <mxGeometry relative="1" as="geometry">
                        <Array as="points">
                            <mxPoint x="420" y="550"/>
                            <mxPoint x="687" y="550"/>
                        </Array>
                    </mxGeometry>
                </mxCell>
                <mxCell id="44" style="edgeStyle=none;html=1;exitX=1;exitY=0.5;exitDx=0;exitDy=0;entryX=0.5;entryY=1;entryDx=0;entryDy=0;fontSize=6;" parent="1" source="24" target="19" edge="1">
                    <mxGeometry relative="1" as="geometry">
                        <Array as="points">
                            <mxPoint x="490" y="495"/>
                        </Array>
                    </mxGeometry>
                </mxCell>
                <mxCell id="45" style="edgeStyle=none;html=1;exitX=0;exitY=0.5;exitDx=0;exitDy=0;entryX=0.5;entryY=1;entryDx=0;entryDy=0;fontSize=6;" parent="1" source="24" target="18" edge="1">
                    <mxGeometry relative="1" as="geometry">
                        <Array as="points">
                            <mxPoint x="350" y="495"/>
                        </Array>
                    </mxGeometry>
                </mxCell>
                <mxCell id="24" value="&lt;font style=&quot;font-size: 9px;&quot;&gt;DbAddAccount&lt;br&gt;UseCase&lt;/font&gt;" style="rounded=1;whiteSpace=wrap;html=1;labelBorderColor=none;strokeColor=default;fontSize=6;fillColor=none;" parent="1" vertex="1">
                    <mxGeometry x="379.25" y="480" width="77" height="30" as="geometry"/>
                </mxCell>
                <mxCell id="63" value="" style="edgeStyle=none;html=1;fontSize=8;rounded=0;" edge="1" parent="1" source="26" target="12">
                    <mxGeometry relative="1" as="geometry">
                        <Array as="points">
                            <mxPoint x="600" y="725"/>
                            <mxPoint x="600" y="760"/>
                        </Array>
                    </mxGeometry>
                </mxCell>
                <mxCell id="106" style="edgeStyle=none;rounded=0;html=1;fontSize=11;" edge="1" parent="1" source="26" target="17">
                    <mxGeometry relative="1" as="geometry"/>
                </mxCell>
                <mxCell id="108" style="edgeStyle=none;rounded=0;html=1;entryX=0.5;entryY=0;entryDx=0;entryDy=0;fontSize=11;" edge="1" parent="1" source="26" target="16">
                    <mxGeometry relative="1" as="geometry"/>
                </mxCell>
                <mxCell id="109" style="edgeStyle=none;rounded=0;html=1;fontSize=11;exitX=0.25;exitY=1;exitDx=0;exitDy=0;" edge="1" parent="1">
                    <mxGeometry relative="1" as="geometry">
                        <mxPoint x="505.7499999999998" y="740" as="sourcePoint"/>
                        <mxPoint x="437" y="780" as="targetPoint"/>
                        <Array as="points">
                            <mxPoint x="506" y="780"/>
                            <mxPoint x="470" y="780"/>
                        </Array>
                    </mxGeometry>
                </mxCell>
                <mxCell id="26" value="SignUpController" style="rounded=1;whiteSpace=wrap;html=1;labelBorderColor=none;strokeColor=default;fontSize=6;fillColor=none;glass=0;" parent="1" vertex="1">
                    <mxGeometry x="489.5" y="710" width="77" height="30" as="geometry"/>
                </mxCell>
                <mxCell id="28" value="Validator" style="rounded=1;whiteSpace=wrap;html=1;labelBorderColor=none;strokeColor=default;fontSize=6;fillColor=none;glass=0;" parent="1" vertex="1">
                    <mxGeometry x="114" y="520" width="77" height="30" as="geometry"/>
                </mxCell>
                <mxCell id="29" value="BCrypt" style="rounded=1;whiteSpace=wrap;html=1;labelBorderColor=none;strokeColor=default;fontSize=6;fillColor=none;glass=0;" parent="1" vertex="1">
                    <mxGeometry x="191" y="300" width="77" height="30" as="geometry"/>
                </mxCell>
                <mxCell id="47" style="edgeStyle=none;html=1;exitX=0.5;exitY=1;exitDx=0;exitDy=0;entryX=0.5;entryY=0;entryDx=0;entryDy=0;fontSize=6;" parent="1" source="30" target="18" edge="1">
                    <mxGeometry relative="1" as="geometry"/>
                </mxCell>
                <mxCell id="49" style="edgeStyle=none;html=1;exitX=0;exitY=0.5;exitDx=0;exitDy=0;entryX=1;entryY=0.5;entryDx=0;entryDy=0;fontSize=6;" parent="1" source="30" target="29" edge="1">
                    <mxGeometry relative="1" as="geometry"/>
                </mxCell>
                <mxCell id="30" value="BCryptAdapter" style="rounded=1;whiteSpace=wrap;html=1;labelBorderColor=none;strokeColor=default;fontSize=6;fillColor=none;glass=0;" parent="1" vertex="1">
                    <mxGeometry x="312.75" y="300" width="77" height="30" as="geometry"/>
                </mxCell>
                <mxCell id="46" style="edgeStyle=none;html=1;exitX=0.5;exitY=1;exitDx=0;exitDy=0;entryX=0.5;entryY=0;entryDx=0;entryDy=0;fontSize=6;" parent="1" source="31" target="19" edge="1">
                    <mxGeometry relative="1" as="geometry"/>
                </mxCell>
                <mxCell id="48" style="edgeStyle=none;html=1;exitX=1;exitY=0.5;exitDx=0;exitDy=0;entryX=0;entryY=0.5;entryDx=0;entryDy=0;fontSize=6;" parent="1" source="31" target="32" edge="1">
                    <mxGeometry relative="1" as="geometry"/>
                </mxCell>
                <mxCell id="31" value="AddUserMongoRepo" style="rounded=1;whiteSpace=wrap;html=1;labelBorderColor=none;strokeColor=default;fontSize=6;fillColor=none;glass=0;" parent="1" vertex="1">
                    <mxGeometry x="451" y="300" width="77" height="30" as="geometry"/>
                </mxCell>
                <mxCell id="32" value="MongoDB" style="rounded=1;whiteSpace=wrap;html=1;labelBorderColor=none;strokeColor=default;fontSize=6;fillColor=none;glass=0;" parent="1" vertex="1">
                    <mxGeometry x="583" y="300" width="77" height="30" as="geometry"/>
                </mxCell>
                <mxCell id="50" value="" style="rounded=0;whiteSpace=wrap;html=1;" vertex="1" parent="1">
                    <mxGeometry x="220" y="900" width="365" height="170" as="geometry"/>
                </mxCell>
                <mxCell id="74" value="" style="edgeStyle=none;html=1;fontSize=14;rounded=0;" edge="1" parent="1" source="20" target="67">
                    <mxGeometry relative="1" as="geometry">
                        <Array as="points">
                            <mxPoint x="659" y="925"/>
                        </Array>
                    </mxGeometry>
                </mxCell>
                <mxCell id="121" style="edgeStyle=none;rounded=0;html=1;entryX=0.428;entryY=1.099;entryDx=0;entryDy=0;entryPerimeter=0;fontSize=8;" edge="1" parent="1" source="20" target="16">
                    <mxGeometry relative="1" as="geometry"/>
                </mxCell>
                <mxCell id="20" value="&lt;font style=&quot;font-size: 9px;&quot;&gt;ExpressRouteAdapter&lt;/font&gt;" style="rounded=1;whiteSpace=wrap;html=1;" parent="1" vertex="1">
                    <mxGeometry x="475.5" y="910" width="96.5" height="30" as="geometry"/>
                </mxCell>
                <mxCell id="68" value="" style="edgeStyle=none;html=1;fontSize=14;entryX=0.423;entryY=0.014;entryDx=0;entryDy=0;rounded=0;entryPerimeter=0;" edge="1" parent="1" source="27" target="17">
                    <mxGeometry relative="1" as="geometry">
                        <Array as="points">
                            <mxPoint x="400" y="630"/>
                        </Array>
                    </mxGeometry>
                </mxCell>
                <mxCell id="72" value="" style="edgeStyle=none;html=1;fontSize=14;" edge="1" parent="1" source="27" target="28">
                    <mxGeometry relative="1" as="geometry"/>
                </mxCell>
                <mxCell id="27" value="&lt;font style=&quot;font-size: 8px;&quot;&gt;EmailValidatorAdapter&lt;/font&gt;" style="rounded=1;whiteSpace=wrap;html=1;labelBorderColor=none;strokeColor=default;fontSize=6;fillColor=none;glass=0;" parent="1" vertex="1">
                    <mxGeometry x="105.75" y="615" width="93.5" height="30" as="geometry"/>
                </mxCell>
                <mxCell id="51" value="Main" style="text;html=1;align=center;verticalAlign=middle;resizable=0;points=[];autosize=1;strokeColor=none;fillColor=none;fontStyle=1;fontSize=12;" vertex="1" parent="1">
                    <mxGeometry x="212.75" y="880" width="50" height="30" as="geometry"/>
                </mxCell>
                <mxCell id="67" value="Express" style="rounded=1;whiteSpace=wrap;html=1;labelBorderColor=none;strokeColor=default;fontSize=6;fillColor=none;glass=0;" vertex="1" parent="1">
                    <mxGeometry x="620" y="980" width="77" height="30" as="geometry"/>
                </mxCell>
                <mxCell id="83" style="edgeStyle=none;html=1;entryX=0.5;entryY=1;entryDx=0;entryDy=0;fontSize=11;rounded=0;" edge="1" parent="1" source="75" target="20">
                    <mxGeometry relative="1" as="geometry">
                        <Array as="points">
                            <mxPoint x="524" y="965"/>
                        </Array>
                    </mxGeometry>
                </mxCell>
                <mxCell id="119" style="edgeStyle=none;rounded=0;html=1;entryX=0.5;entryY=1;entryDx=0;entryDy=0;fontSize=8;" edge="1" parent="1" source="75" target="79">
                    <mxGeometry relative="1" as="geometry"/>
                </mxCell>
                <mxCell id="75" value="&lt;font style=&quot;font-size: 9px;&quot;&gt;LoginRoutes&lt;br&gt;&lt;/font&gt;" style="rounded=1;whiteSpace=wrap;html=1;" vertex="1" parent="1">
                    <mxGeometry x="318" y="950" width="80" height="30" as="geometry"/>
                </mxCell>
                <mxCell id="79" value="&lt;font style=&quot;font-size: 9px;&quot;&gt;LoginFactory&lt;/font&gt;" style="shape=process;whiteSpace=wrap;html=1;backgroundOutline=1;rounded=1;fontSize=14;" vertex="1" parent="1">
                    <mxGeometry x="319.88" y="910" width="76.25" height="20" as="geometry"/>
                </mxCell>
                <mxCell id="85" value="&lt;span style=&quot;font-size: 11px;&quot;&gt;Authentication&lt;/span&gt;" style="square;whiteSpace=wrap;html=1;fontSize=12;labelBorderColor=none;fillColor=none;dashed=1;strokeColor=default;" vertex="1" parent="1">
                    <mxGeometry x="733" y="740.93" width="87" height="36.87" as="geometry"/>
                </mxCell>
                <mxCell id="88" value="" style="edgeStyle=none;html=1;fontSize=11;rounded=0;" edge="1" parent="1" source="86" target="20">
                    <mxGeometry relative="1" as="geometry">
                        <Array as="points">
                            <mxPoint x="524" y="1010"/>
                        </Array>
                    </mxGeometry>
                </mxCell>
                <mxCell id="114" style="edgeStyle=none;rounded=0;html=1;entryX=0.5;entryY=0;entryDx=0;entryDy=0;fontSize=8;" edge="1" parent="1" source="86" target="113">
                    <mxGeometry relative="1" as="geometry"/>
                </mxCell>
                <mxCell id="86" value="&lt;font style=&quot;font-size: 9px;&quot;&gt;SignUpRoutes&lt;br&gt;&lt;/font&gt;" style="rounded=1;whiteSpace=wrap;html=1;" vertex="1" parent="1">
                    <mxGeometry x="318.01" y="995" width="80" height="30" as="geometry"/>
                </mxCell>
                <mxCell id="101" style="edgeStyle=none;rounded=0;html=1;entryX=0;entryY=0.5;entryDx=0;entryDy=0;fontSize=11;" edge="1" parent="1" source="92" target="94">
                    <mxGeometry relative="1" as="geometry">
                        <Array as="points">
                            <mxPoint x="273" y="783"/>
                        </Array>
                    </mxGeometry>
                </mxCell>
                <mxCell id="102" style="edgeStyle=none;rounded=0;html=1;entryX=0;entryY=0.5;entryDx=0;entryDy=0;fontSize=11;" edge="1" parent="1" source="92" target="95">
                    <mxGeometry relative="1" as="geometry">
                        <Array as="points">
                            <mxPoint x="273" y="820"/>
                        </Array>
                    </mxGeometry>
                </mxCell>
                <mxCell id="104" style="edgeStyle=none;rounded=0;html=1;entryX=0;entryY=0.5;entryDx=0;entryDy=0;fontSize=11;" edge="1" parent="1" source="92" target="16">
                    <mxGeometry relative="1" as="geometry">
                        <Array as="points">
                            <mxPoint x="273" y="845"/>
                            <mxPoint x="340" y="845"/>
                            <mxPoint x="410" y="845"/>
                        </Array>
                    </mxGeometry>
                </mxCell>
                <mxCell id="105" style="edgeStyle=none;rounded=0;html=1;entryX=0;entryY=0.5;entryDx=0;entryDy=0;fontSize=11;" edge="1" parent="1" source="92" target="17">
                    <mxGeometry relative="1" as="geometry"/>
                </mxCell>
                <mxCell id="92" value="LoginController" style="rounded=1;whiteSpace=wrap;html=1;labelBorderColor=none;strokeColor=default;fontSize=6;fillColor=none;glass=0;" vertex="1" parent="1">
                    <mxGeometry x="234.63" y="710" width="77" height="30" as="geometry"/>
                </mxCell>
                <mxCell id="95" value="&lt;font style=&quot;font-size: 6px;&quot;&gt;HttpRequest&lt;br&gt;&lt;/font&gt;" style="square;whiteSpace=wrap;html=1;fontSize=12;labelBorderColor=none;fillColor=none;dashed=1;strokeColor=default;" vertex="1" parent="1">
                    <mxGeometry x="367.5" y="807.5" width="70" height="25" as="geometry"/>
                </mxCell>
                <mxCell id="94" value="&lt;font style=&quot;font-size: 6px;&quot;&gt;HttpResponse&lt;/font&gt;" style="square;whiteSpace=wrap;html=1;fontSize=12;labelBorderColor=none;fillColor=none;dashed=1;strokeColor=default;" vertex="1" parent="1">
                    <mxGeometry x="367.5" y="770" width="70" height="25" as="geometry"/>
                </mxCell>
                <mxCell id="110" style="edgeStyle=none;rounded=0;html=1;fontSize=11;exitX=0.25;exitY=1;exitDx=0;exitDy=0;entryX=1;entryY=0.5;entryDx=0;entryDy=0;" edge="1" parent="1" target="95">
                    <mxGeometry relative="1" as="geometry">
                        <mxPoint x="506.2499999999998" y="740" as="sourcePoint"/>
                        <mxPoint x="437.5" y="780" as="targetPoint"/>
                        <Array as="points">
                            <mxPoint x="506.5" y="780"/>
                            <mxPoint x="470.5" y="780"/>
                            <mxPoint x="471" y="790"/>
                            <mxPoint x="450" y="790"/>
                            <mxPoint x="450" y="820"/>
                        </Array>
                    </mxGeometry>
                </mxCell>
                <mxCell id="117" style="edgeStyle=none;rounded=0;html=1;entryX=0;entryY=0.5;entryDx=0;entryDy=0;fontSize=8;" edge="1" parent="1" source="111" target="86">
                    <mxGeometry relative="1" as="geometry">
                        <Array as="points">
                            <mxPoint x="263" y="1010"/>
                        </Array>
                    </mxGeometry>
                </mxCell>
                <mxCell id="120" style="edgeStyle=none;rounded=0;html=1;entryX=0;entryY=0.25;entryDx=0;entryDy=0;fontSize=8;exitX=0.5;exitY=0;exitDx=0;exitDy=0;" edge="1" parent="1" source="111" target="75">
                    <mxGeometry relative="1" as="geometry">
                        <Array as="points">
                            <mxPoint x="263" y="958"/>
                        </Array>
                    </mxGeometry>
                </mxCell>
                <mxCell id="111" value="App" style="rounded=0;whiteSpace=wrap;html=1;fontSize=8;fillColor=#647687;fontColor=#ffffff;strokeColor=#314354;" vertex="1" parent="1">
                    <mxGeometry x="227.75" y="971" width="70" height="30" as="geometry"/>
                </mxCell>
                <mxCell id="113" value="&lt;font style=&quot;font-size: 8px;&quot;&gt;SignUpFactory&lt;/font&gt;" style="shape=process;whiteSpace=wrap;html=1;backgroundOutline=1;rounded=1;fontSize=14;" vertex="1" parent="1">
                    <mxGeometry x="318" y="1046" width="76.25" height="20" as="geometry"/>
                </mxCell>
            </root>
        </mxGraphModel>
    </diagram>
</mxfile>